<?xml version="1.0" encoding="UTF-8"?>
<svg id="Capa_2" data-name="Capa 2" xmlns="http://www.w3.org/2000/svg" viewBox="0 0 874.96 239.84">
  <defs>
    <style>
      .cls-1 {
        fill: #fff;
      }
    </style>
  </defs>
  <g id="Layer_1" data-name="Layer 1">
    <g>
      <rect class="cls-1" x="63.76" y="169.97" width="112.5" height="19.18"/>
      <g>
        <path class="cls-1" d="M371.13,28.89c-.27.27-.6.41-.98.41h-24.16c-.39,0-.58.19-.58.58v18.27c0,.39.19.58.58.58h13.88c.39,0,.71.14.98.41.27.27.4.6.4.98v11.21c0,.39-.14.71-.4.98-.27.27-.6.4-.98.4h-13.88c-.39,0-.58.19-.58.58v18.39c0,.39.19.58.58.58h24.16c.39,0,.71.14.98.4.27.27.4.6.4.98v11.22c0,.39-.13.71-.4.98-.27.27-.6.4-.98.4h-39.66c-.39,0-.71-.13-.98-.4-.27-.27-.4-.6-.4-.98V16.69c0-.39.13-.71.4-.98.27-.27.6-.41.98-.41h39.66c.39,0,.71.14.98.41s.4.6.4.98v11.21c0,.39-.13.72-.4.98"/>
        <path class="cls-1" d="M394.54,94.51c-3.4-1.77-6.01-4.26-7.86-7.46-1.85-3.19-2.78-6.88-2.78-11.04v-3.35c0-.39.13-.71.41-.98.27-.27.59-.4.98-.4h13.3c.39,0,.71.13.98.4.27.27.4.6.4.98v2.55c0,2.39.62,4.32,1.85,5.78,1.23,1.46,2.78,2.2,4.63,2.2s3.39-.69,4.63-2.08c1.23-1.39,1.85-3.2,1.85-5.44s-.77-4.3-2.31-5.95c-1.54-1.66-4.55-4.1-9.02-7.34-3.86-2.78-6.98-5.24-9.36-7.4-2.39-2.16-4.44-4.82-6.13-7.98-1.7-3.16-2.54-6.82-2.54-10.98,0-6.55,2.04-11.79,6.13-15.73,4.09-3.93,9.48-5.9,16.19-5.9s12.24,2.04,16.36,6.13c4.12,4.08,6.19,9.44,6.19,16.07v2.77c0,.39-.14.72-.4.99-.27.27-.6.4-.98.4h-13.3c-.39,0-.71-.13-.98-.4-.27-.27-.4-.6-.4-.99v-3.12c0-2.39-.6-4.3-1.79-5.72-1.2-1.43-2.76-2.14-4.68-2.14s-3.35.68-4.51,2.03c-1.16,1.35-1.74,3.22-1.74,5.61s.73,4.36,2.2,6.13c1.47,1.77,4.36,4.24,8.67,7.4,4.78,3.55,8.38,6.42,10.81,8.62,2.43,2.2,4.32,4.62,5.67,7.28,1.35,2.66,2.02,5.84,2.02,9.54,0,6.79-2.08,12.18-6.25,16.19-4.16,4.01-9.63,6.01-16.42,6.01-4.47,0-8.4-.89-11.79-2.66"/>
        <path class="cls-1" d="M487.79,15.71c.27.27.4.6.4.98v11.21c0,.39-.13.72-.4.98-.27.27-.6.41-.98.41h-14.45c-.39,0-.58.19-.58.58v64.98c0,.39-.14.71-.41.98-.27.27-.6.4-.98.4h-13.53c-.39,0-.72-.13-.98-.4-.27-.27-.41-.6-.41-.98V29.87c0-.39-.19-.58-.58-.58h-13.88c-.39,0-.72-.14-.98-.41-.27-.27-.41-.6-.41-.98v-11.21c0-.39.14-.71.41-.98.27-.27.59-.41.98-.41h45.79c.39,0,.71.14.98.41"/>
        <path class="cls-1" d="M532.13,95.09l-8.9-31.91c-.15-.31-.35-.46-.58-.46h-3.93c-.39,0-.58.19-.58.58v31.57c0,.39-.14.71-.4.98-.27.27-.6.4-.98.4h-13.53c-.39,0-.71-.13-.98-.4-.27-.27-.4-.6-.4-.98V16.69c0-.39.13-.71.4-.98.27-.27.59-.41.98-.41h23.35c4.24,0,8.02,1.03,11.33,3.07,3.31,2.04,5.88,4.91,7.69,8.61,1.81,3.7,2.71,7.94,2.71,12.72s-.86,8.56-2.6,12.02c-1.74,3.47-4.14,6.17-7.23,8.1-.16.08-.27.17-.35.29-.08.12-.08.25,0,.4l10.64,34.11.12.46c0,.77-.42,1.16-1.27,1.16h-13.88c-.85,0-1.39-.39-1.62-1.16M518.14,29.87v19.77c0,.39.19.58.58.58h5.2c2.39,0,4.33-.94,5.84-2.83,1.5-1.89,2.25-4.41,2.25-7.57s-.75-5.8-2.25-7.69c-1.5-1.89-3.45-2.83-5.84-2.83h-5.2c-.39,0-.58.19-.58.58"/>
        <path class="cls-1" d="M595.15,94.97l-1.85-11.1c0-.39-.23-.58-.69-.58h-14.69c-.46,0-.69.19-.69.58l-1.85,11.1c-.08.85-.58,1.27-1.5,1.27h-13.53c-1,0-1.39-.5-1.16-1.5l17-78.16c.15-.85.66-1.27,1.5-1.27h15.61c.85,0,1.35.42,1.5,1.27l16.88,78.16.12.46c0,.69-.42,1.04-1.27,1.04h-13.88c-.93,0-1.43-.42-1.51-1.27M580,70.69h10.41c.38,0,.54-.19.46-.58l-5.43-31.56c-.08-.23-.19-.35-.35-.35s-.27.12-.35.35l-5.2,31.56c0,.39.15.58.46.58"/>
        <path class="cls-1" d="M663.2,15.71c.27.27.4.6.4.98v11.21c0,.39-.13.72-.4.98-.27.27-.6.41-.98.41h-14.45c-.39,0-.58.19-.58.58v64.98c0,.39-.14.71-.41.98-.27.27-.6.4-.98.4h-13.53c-.39,0-.71-.13-.98-.4-.27-.27-.41-.6-.41-.98V29.87c0-.39-.19-.58-.58-.58h-13.88c-.39,0-.72-.14-.98-.41-.27-.27-.41-.6-.41-.98v-11.21c0-.39.14-.71.41-.98.27-.27.59-.41.98-.41h45.79c.39,0,.71.14.98.41"/>
        <path class="cls-1" d="M719.27,28.89c-.27.27-.6.41-.98.41h-24.16c-.39,0-.58.19-.58.58v18.27c0,.39.19.58.58.58h13.88c.39,0,.71.14.98.41.27.27.4.6.4.98v11.21c0,.39-.14.71-.4.98-.27.27-.6.4-.98.4h-13.88c-.39,0-.58.19-.58.58v18.39c0,.39.19.58.58.58h24.16c.39,0,.71.14.98.4.27.27.4.6.4.98v11.22c0,.39-.13.71-.4.98-.27.27-.6.4-.98.4h-39.66c-.39,0-.71-.13-.98-.4-.27-.27-.4-.6-.4-.98V16.69c0-.39.13-.71.4-.98.27-.27.6-.41.98-.41h39.66c.39,0,.71.14.98.41.27.27.4.6.4.98v11.21c0,.39-.13.72-.4.98"/>
        <path class="cls-1" d="M738.81,91.21c-4.2-3.97-6.3-9.27-6.3-15.9v-39.08c0-6.63,2.1-11.93,6.3-15.9,4.2-3.97,9.77-5.95,16.71-5.95s12.53,2,16.77,6.01c4.24,4.01,6.36,9.33,6.36,15.95v4.4c0,.39-.13.71-.4.98-.27.27-.6.4-.98.4h-13.53c-.39,0-.71-.13-.98-.4-.27-.27-.4-.6-.4-.98v-4.63c0-2.31-.62-4.18-1.85-5.61-1.23-1.43-2.89-2.14-4.97-2.14s-3.63.71-4.86,2.14c-1.23,1.43-1.85,3.29-1.85,5.61v39.31c0,2.31.62,4.18,1.85,5.61,1.23,1.43,2.85,2.14,4.86,2.14s3.74-.71,4.97-2.14c1.23-1.43,1.85-3.3,1.85-5.61v-9.25c0-.39-.19-.58-.58-.58h-5.09c-.39,0-.71-.13-.98-.4s-.4-.6-.4-.98v-10.29c0-.38.13-.71.4-.98.27-.27.6-.4.98-.4h20.58c.39,0,.71.14.98.4.27.27.4.6.4.98v21.39c0,6.63-2.12,11.93-6.36,15.9-4.24,3.97-9.83,5.95-16.77,5.95s-12.51-1.98-16.71-5.95"/>
        <path class="cls-1" d="M793.85,95.84c-.27-.27-.4-.6-.4-.98V16.69c0-.39.13-.71.4-.98.27-.27.6-.4.98-.4h13.53c.39,0,.71.14.98.4.27.27.4.6.4.98v78.16c0,.39-.13.72-.4.98-.27.27-.6.41-.98.41h-13.53c-.39,0-.71-.13-.98-.41"/>
        <path class="cls-1" d="M858.31,94.97l-1.85-11.1c0-.39-.23-.58-.69-.58h-14.69c-.46,0-.7.19-.7.58l-1.85,11.1c-.08.85-.58,1.27-1.5,1.27h-13.53c-1,0-1.39-.5-1.16-1.5l17-78.16c.15-.85.66-1.27,1.51-1.27h15.61c.85,0,1.35.42,1.5,1.27l16.88,78.16.12.46c0,.69-.42,1.04-1.27,1.04h-13.88c-.93,0-1.43-.42-1.51-1.27M843.16,70.69h10.41c.38,0,.54-.19.46-.58l-5.43-31.56c-.08-.23-.19-.35-.35-.35s-.27.12-.35.35l-5.2,31.56c0,.39.15.58.46.58"/>
        <path class="cls-1" d="M335.4,218.92c-4.2-4.36-6.3-10.16-6.3-17.4v-56.54c0-.38.13-.71.4-.98.27-.27.6-.4.98-.4h13.53c.39,0,.71.13.98.4.27.27.4.6.4.98v58.16c0,2.47.62,4.47,1.85,6.01,1.23,1.54,2.85,2.31,4.86,2.31s3.6-.77,4.8-2.31c1.19-1.54,1.79-3.54,1.79-6.01v-58.16c0-.38.13-.71.4-.98s.59-.4.98-.4h13.53c.38,0,.71.13.98.4.27.27.41.6.41.98v56.54c0,7.25-2.1,13.05-6.3,17.4-4.21,4.36-9.74,6.53-16.59,6.53s-12.51-2.17-16.71-6.53"/>
        <path class="cls-1" d="M420.9,223.37l-8.9-31.91c-.15-.31-.35-.46-.58-.46h-3.93c-.39,0-.58.19-.58.58v31.57c0,.39-.14.71-.4.98-.27.27-.6.4-.98.4h-13.53c-.39,0-.71-.13-.98-.4-.27-.27-.4-.6-.4-.98v-78.16c0-.39.13-.71.4-.98s.59-.41.98-.41h23.35c4.24,0,8.02,1.02,11.33,3.06,3.31,2.04,5.88,4.91,7.69,8.62,1.81,3.7,2.71,7.94,2.71,12.72s-.86,8.56-2.6,12.02c-1.74,3.47-4.14,6.17-7.23,8.09-.16.08-.27.18-.35.29-.08.12-.08.25,0,.4l10.64,34.11.12.46c0,.77-.42,1.16-1.27,1.16h-13.88c-.85,0-1.39-.39-1.62-1.16M406.91,158.16v19.77c0,.39.19.58.58.58h5.2c2.39,0,4.33-.94,5.84-2.83,1.5-1.89,2.25-4.41,2.25-7.57s-.75-5.8-2.25-7.69c-1.5-1.89-3.45-2.83-5.84-2.83h-5.2c-.39,0-.58.19-.58.58"/>
        <path class="cls-1" d="M490.86,218.75c-4.32,3.86-9.9,5.78-16.77,5.78h-21.85c-.39,0-.71-.13-.98-.4-.27-.27-.4-.6-.4-.98v-78.16c0-.39.13-.71.4-.98.27-.27.6-.41.98-.41h19.31c7.71,0,13.74,1.85,18.09,5.55,4.35,3.7,6.53,9.21,6.53,16.53s-2.62,13.18-7.86,16.65c-.31.23-.35.46-.12.69,6.09,4.32,9.14,10.71,9.14,19.2,0,7.17-2.16,12.68-6.48,16.53M467.15,158.16v18.15c0,.39.19.58.58.58h4.16c2.62,0,4.66-.83,6.13-2.49,1.47-1.66,2.2-3.99,2.2-7,0-3.16-.71-5.59-2.14-7.28-1.43-1.7-3.49-2.55-6.19-2.55h-4.16c-.39,0-.58.19-.58.58M478.83,207.65c1.47-1.85,2.2-4.47,2.2-7.86s-.73-6.09-2.2-8.09c-1.47-2.01-3.43-3.01-5.9-3.01h-5.2c-.39,0-.58.19-.58.58v20.58c0,.39.19.58.58.58h5.09c2.55,0,4.55-.93,6.01-2.78"/>
        <path class="cls-1" d="M541.15,223.25l-1.85-11.1c0-.39-.23-.58-.69-.58h-14.69c-.46,0-.69.19-.69.58l-1.85,11.1c-.08.85-.58,1.27-1.5,1.27h-13.53c-1,0-1.39-.5-1.16-1.5l17-78.16c.15-.85.66-1.27,1.5-1.27h15.61c.85,0,1.35.42,1.5,1.27l16.88,78.16.12.46c0,.69-.42,1.04-1.27,1.04h-13.88c-.93,0-1.43-.42-1.51-1.27M526.01,198.97h10.41c.38,0,.54-.19.46-.58l-5.43-31.57c-.08-.23-.19-.35-.35-.35s-.27.12-.35.35l-5.2,31.57c0,.39.15.58.46.58"/>
        <path class="cls-1" d="M603.65,143.99c.27-.27.6-.4.98-.4h13.41c.39,0,.71.13.99.4.27.27.4.6.4.98v78.16c0,.39-.14.71-.4.98-.27.27-.6.4-.99.4h-15.26c-.77,0-1.27-.38-1.5-1.16l-14.34-44.75c-.08-.23-.21-.33-.4-.29-.19.04-.29.17-.29.4l.12,44.4c0,.39-.14.71-.41.98-.27.27-.6.4-.98.4h-13.41c-.39,0-.72-.13-.98-.4-.27-.27-.41-.6-.41-.98v-78.16c0-.39.13-.71.41-.98.27-.27.59-.4.98-.4h15.15c.77,0,1.27.39,1.5,1.16l14.45,44.75c.08.23.21.33.4.29.19-.04.29-.17.29-.4l-.12-44.4c0-.39.13-.71.4-.98"/>
        <path class="cls-1" d="M667.88,223.25l-1.85-11.1c0-.39-.23-.58-.69-.58h-14.69c-.46,0-.69.19-.69.58l-1.85,11.1c-.08.85-.58,1.27-1.5,1.27h-13.53c-1,0-1.39-.5-1.16-1.5l17-78.16c.15-.85.66-1.27,1.5-1.27h15.61c.85,0,1.35.42,1.5,1.27l16.88,78.16.12.46c0,.69-.42,1.04-1.27,1.04h-13.88c-.93,0-1.43-.42-1.51-1.27M652.73,198.97h10.41c.38,0,.54-.19.46-.58l-5.43-31.57c-.08-.23-.19-.35-.35-.35s-.27.12-.35.35l-5.2,31.57c0,.39.15.58.46.58"/>
        <polygon class="cls-1" points="219.94 19.82 176.76 19.82 176.76 0 239.9 0 239.9 239.84 0 239.84 0 .08 63.35 .08 63.35 19.81 19.99 19.81 19.99 219.79 219.94 219.79 219.94 19.82"/>
        <rect class="cls-1" x="63.69" y="50.52" width="112.81" height="19.57"/>
        <rect class="cls-1" x="63.68" y="110.07" width="82.08" height="19.61"/>
        <g>
          <path class="cls-1" d="M709.19,167.81c-6.66,0-12.08-5.42-12.08-12.08s5.42-12.08,12.08-12.08,12.08,5.42,12.08,12.08-5.42,12.08-12.08,12.08ZM709.24,145.46c-5.73,0-10.38,4.66-10.38,10.38s4.66,10.38,10.38,10.38,10.38-4.66,10.38-10.38-4.66-10.38-10.38-10.38Z"/>
          <path class="cls-1" d="M704.21,162.04v-12.51h5.15c1.11,0,2.06.18,2.85.54s1.4.87,1.83,1.54c.43.67.64,1.46.64,2.38s-.21,1.71-.64,2.37c-.43.66-1.04,1.17-1.83,1.52-.79.35-1.74.53-2.85.53h-3.86l1.04-1.05v4.7h-2.32ZM706.53,157.59l-1.04-1.11h3.75c1.02,0,1.8-.22,2.31-.66.52-.44.78-1.05.78-1.84s-.26-1.41-.78-1.84-1.29-.64-2.31-.64h-3.75l1.04-1.14v7.24ZM712.4,162.04l-3.16-4.54h2.48l3.18,4.54h-2.5Z"/>
        </g>
      </g>
    </g>
  </g>
</svg>